<svg xmlns="http://www.w3.org/2000/svg" version="1.1" xmlns:xlink="http://www.w3.org/1999/xlink" xmlns:svgjs="http://svgjs.dev/svgjs" width="128" height="128" viewBox="0 0 128 128"><g transform="matrix(0.8046875,0,0,0.8046875,12.221578124999994,18.594553632173522)"><svg viewBox="0 0 96 84" data-background-color="#111111" preserveAspectRatio="xMidYMid meet" height="112" width="128" xmlns="http://www.w3.org/2000/svg" xmlns:xlink="http://www.w3.org/1999/xlink"><g id="tight-bounds" transform="matrix(1,0,0,1,0.25950000000000273,0.31963933311982373)"><svg viewBox="0 0 95.481 83.36072133376034" height="83.36072133376034" width="95.481"><g><svg viewBox="0 0 95.481 83.36072133376034" height="83.36072133376034" width="95.481"><g><svg viewBox="0 0 95.481 83.36072133376034" height="83.36072133376034" width="95.481"><g id="textblocktransform"><svg viewBox="0 0 95.481 83.36072133376034" height="83.36072133376034" width="95.481" id="textblock"><g><svg viewBox="0 0 95.481 83.36072133376034" height="83.36072133376034" width="95.481"><g><svg viewBox="0 0 95.481 83.36072133376034" height="83.36072133376034" width="95.481"><g><svg xmlns="http://www.w3.org/2000/svg" xmlns:xlink="http://www.w3.org/1999/xlink" version="1.1" x="0" y="0" viewBox="1.9370601984620066 4.992 48.12493980153799 42.016000000000005" enable-background="new 0 0 52 52" xml:space="preserve" height="83.36072133376034" width="95.481" class="icon-icon-0" data-fill-palette-color="accent" id="icon-0"><g fill="#00bfa6" data-fill-palette-color="accent"><g fill="#00bfa6" data-fill-palette-color="accent"><path d="M46.877 47.008H10.927V37.677L11.028 37.469C12.474 34.518 13.418 32.218 13.69 30.992 14.142 28.894 12.741 27.19 11.404 26.372L10.927 26.078V15.9H46.877zM12.927 45.008H44.877V17.898H12.927V24.982C15.102 26.543 16.162 29.015 15.644 31.418 15.266 33.132 13.98 35.977 12.927 38.14z" fill="#00bfa6" data-fill-palette-color="accent"></path></g><g fill="#00bfa6" data-fill-palette-color="accent"><path d="M26.327 47.005H16.287V28.635H26.327zM18.287 45.005H24.327V30.635H18.287z" fill="#00bfa6" data-fill-palette-color="accent"></path></g><g fill="#00bfa6" data-fill-palette-color="accent"><path d="M41.516 47.005H31.475V28.635H41.515zM33.475 45.005H39.515V30.635H33.476z" fill="#00bfa6" data-fill-palette-color="accent"></path></g><g fill="#00bfa6" data-fill-palette-color="accent"><path d="M50.062 17.904H7.866L10.308 10.448H47.62zM10.626 15.904H47.303L46.17 12.448H11.757z" fill="#00bfa6" data-fill-palette-color="accent"></path></g><g fill="#00bfa6" data-fill-palette-color="accent"><path d="M46.877 12.448H10.926V4.992H46.876zM12.926 10.448H44.876V6.992H12.927z" fill="#00bfa6" data-fill-palette-color="accent"></path></g><g fill="#00bfa6" data-fill-palette-color="accent"><path d="M41.516 26.998H16.287V19.518H41.516zM18.287 24.998H39.516V21.518H18.287z" fill="#00bfa6" data-fill-palette-color="accent"></path></g><g fill="#00bfa6" data-fill-palette-color="accent"><rect x="2.857378" y="44.9980469" width="46" height="2" fill="#00bfa6" data-fill-palette-color="accent"></rect></g><g fill="#00bfa6" data-fill-palette-color="accent"><path d="M8.856 45.919L7.98 44.33C7.771 43.95 2.842 34.981 2.07 31.42 1.685 29.643 2.143 27.837 3.356 26.334 4.71 24.658 6.817 23.618 8.857 23.618 10.076 23.618 11.316 23.98 12.444 24.663L12.45 24.666C14.944 26.193 16.2 28.845 15.644 31.418 15.253 33.188 13.895 36.163 12.825 38.348A148 148 0 0 1 9.732 44.33zM8.856 25.619C7.43 25.618 5.881 26.392 4.914 27.588 4.088 28.614 3.771 29.825 4.024 30.998 4.55 33.421 7.391 38.971 8.856 41.737A140 140 0 0 0 11.027 37.472C12.474 34.518 13.42 32.218 13.69 30.992 14.142 28.895 12.743 27.192 11.407 26.373 10.593 25.879 9.711 25.618 8.857 25.618M8.936 34.228C7.045 34.229 5.506 32.689 5.506 30.798S7.046 27.368 8.937 27.368C10.822 27.368 12.356 28.906 12.356 30.798S10.822 34.228 8.936 34.228M8.936 29.369A1.43 1.43 0 1 0 8.937 32.228C9.72 32.229 10.356 31.588 10.356 30.799S9.72 29.368 8.936 29.368" fill="#00bfa6" data-fill-palette-color="accent"></path></g><g fill="#00bfa6" data-fill-palette-color="accent"><path d="M8.936 34.229C7.045 34.229 5.506 32.689 5.506 30.798S7.046 27.368 8.937 27.368C10.822 27.368 12.356 28.906 12.356 30.798S10.822 34.228 8.936 34.228M8.936 29.369A1.43 1.43 0 1 0 8.937 32.228C9.72 32.229 10.356 31.588 10.356 30.799S9.72 29.368 8.936 29.368" fill="#00bfa6" data-fill-palette-color="accent"></path></g><g fill="#00bfa6" data-fill-palette-color="accent"><path d="M8.936 34.229C7.045 34.229 5.506 32.689 5.506 30.798S7.046 27.368 8.937 27.368C10.822 27.368 12.356 28.906 12.356 30.798S10.822 34.228 8.936 34.228M8.936 29.369A1.43 1.43 0 1 0 8.937 32.228C9.72 32.229 10.356 31.588 10.356 30.799S9.72 29.368 8.936 29.368" fill="#00bfa6" data-fill-palette-color="accent"></path></g></g></svg></g></svg></g></svg></g></svg></g></svg></g></svg></g><defs></defs></svg><rect width="95.481" height="83.36072133376034" fill="none" stroke="none" visibility="hidden"></rect></g></svg></g></svg>